<svg width="29" height="29" viewBox="0 0 29 29" fill="none" xmlns="http://www.w3.org/2000/svg">
<mask id="mask0" mask-type="alpha" maskUnits="userSpaceOnUse" x="0" y="0" width="29" height="29">
<path fill-rule="evenodd" clip-rule="evenodd" d="M6.59267 0.0142498C5.94593 0.0372391 5.11239 0.0878372 4.73354 0.164303C4.15522 0.28109 3.60908 0.458155 3.1549 0.689642C2.62127 0.961596 2.143 1.30857 1.73003 1.7209C1.31612 2.13402 0.967751 2.61273 0.694705 3.14716C0.463865 3.59891 0.286899 4.14172 0.169617 4.71676C0.0916111 5.09945 0.0400209 5.93919 0.016634 6.5901C0.00715013 6.85614 0.00228407 7.20045 0.00228407 7.35924L0 21.6385C0 21.7966 0.00481641 22.141 0.0142506 22.4074C0.0372403 23.0541 0.0878374 23.8876 0.164354 24.2665C0.28109 24.8447 0.458204 25.3909 0.68964 25.8451C0.961643 26.3788 1.30857 26.8569 1.7209 27.27C2.13402 27.6838 2.61278 28.0322 3.14715 28.3053C3.59895 28.5361 4.14176 28.7131 4.71675 28.8304C5.09944 28.9084 5.93923 28.96 6.59014 28.9833C6.85608 28.9928 7.20043 28.9977 7.35923 28.9977L21.6384 29C21.7966 29 22.141 28.9952 22.4073 28.9857C23.054 28.9627 23.8876 28.9122 24.2664 28.8356C24.8447 28.7189 25.3909 28.5417 25.8451 28.3104C26.3787 28.0384 26.8569 27.6914 27.2699 27.2791C27.6838 26.8659 28.0321 26.3873 28.3052 25.8528C28.536 25.401 28.7131 24.8583 28.8303 24.2832C28.9084 23.9006 28.9599 23.0607 28.9833 22.4098C28.9928 22.1439 28.9977 21.7996 28.9977 21.6408L29 7.36152C29 7.20333 28.9952 6.85892 28.9857 6.59263C28.9627 5.94594 28.9121 5.1124 28.8356 4.73355C28.7189 4.15523 28.5417 3.60909 28.3103 3.1549C28.0384 2.62122 27.6913 2.14301 27.2791 1.72999C26.8659 1.31617 26.3872 0.967752 25.8528 0.694706C25.401 0.463865 24.8582 0.28685 24.2832 0.169617C23.9005 0.0916119 23.0607 0.04002 22.4099 0.0166836C22.1438 0.00710106 21.7995 0.0022831 21.6407 0.0022831L7.36151 0C7.20331 0 6.85891 0.00476456 6.59267 0.0142498Z" fill="white"/>
</mask>
<g mask="url(#mask0)">
<path fill-rule="evenodd" clip-rule="evenodd" d="M21.929 17.5737C21.6043 17.412 20.0078 16.6302 19.7101 16.5223C19.4125 16.4145 19.1961 16.3606 18.9796 16.6841C18.7631 17.0076 18.1409 17.7355 17.9514 17.9512C17.762 18.1668 17.5726 18.1938 17.2479 18.032C16.9232 17.8703 15.877 17.529 14.6367 16.4281C13.6714 15.5713 13.0197 14.5129 12.8303 14.1894C12.6409 13.8659 12.8101 13.691 12.9727 13.5299C13.1187 13.3852 13.2974 13.1525 13.4598 12.9638C13.6221 12.7751 13.6762 12.6403 13.7845 12.4246C13.8927 12.2089 13.8386 12.0202 13.7574 11.8585C13.6762 11.6967 13.0269 10.1061 12.7563 9.45909C12.4927 8.82897 12.225 8.91423 12.0257 8.90435C11.8365 8.89496 11.6198 8.89297 11.4033 8.89297C11.1869 8.89297 10.8351 8.97388 10.5374 9.29733C10.2398 9.62085 9.40099 10.4027 9.40099 11.9932C9.40099 13.5838 10.5645 15.1205 10.7269 15.3362C10.8892 15.5519 13.0166 18.8159 16.2738 20.2157C17.0486 20.5487 17.6534 20.7474 18.125 20.8965C18.9028 21.1424 19.6107 21.1077 20.1702 21.0245C20.794 20.9317 22.0913 20.2427 22.3619 19.4878C22.6325 18.733 22.6325 18.086 22.5513 17.9512C22.4702 17.8164 22.2537 17.7355 21.929 17.5737ZM16.0035 25.6244H15.9992C14.061 25.6236 12.16 25.1055 10.5016 24.126L10.1072 23.893L6.01914 24.9603L7.11033 20.9936L6.85346 20.5869C5.77226 18.8754 5.20123 16.8972 5.20204 14.8661C5.20441 8.93921 10.0499 4.11728 16.0078 4.11728C18.8928 4.1184 21.6048 5.23802 23.6441 7.26982C25.6834 9.30169 26.8059 12.0025 26.8048 14.8748C26.8023 20.8021 21.9569 25.6244 16.0035 25.6244ZM25.1972 5.72622C22.7437 3.2816 19.4808 1.93466 16.0044 1.93329C8.84156 1.93329 3.01182 7.73473 3.00895 14.8657C3.00802 17.1451 3.60639 19.3702 4.74358 21.3314L2.89996 28.0334L9.78905 26.2349C11.6872 27.2653 13.8242 27.8082 15.9992 27.8091H16.0046H16.0046C23.1668 27.8091 28.997 22.007 29 14.876C29.0013 11.4202 27.6508 8.17079 25.1972 5.72622Z" fill="white"/>
</g>
</svg>
